<svg xmlns="http://www.w3.org/2000/svg" width="100" height="40" viewBox="0 0 100 40"><rect width="100%" height="100%" fill="#DDDDDD"/><path fill="#999999" d="M25.765 14.125v1.44h-2.83v7.96h-1.75v-7.96h-2.84v-1.44h7.42Zm2.25 5.3h3.03q0-.31-.09-.59-.09-.28-.26-.48-.18-.21-.45-.33-.27-.12-.62-.12-.7 0-1.1.39-.4.4-.51 1.13Zm4.1.97h-4.13q.04.51.18.88.14.38.38.62.23.25.55.37.32.12.71.12.39 0 .68-.1.28-.09.49-.2.21-.11.37-.2.16-.09.31-.09.2 0 .3.15l.46.59q-.27.31-.6.52-.33.21-.69.34-.36.12-.73.18-.38.05-.73.05-.69 0-1.29-.23-.6-.23-1.04-.69-.44-.45-.7-1.11-.25-.67-.25-1.55 0-.68.22-1.28t.63-1.05q.42-.44 1.01-.7.6-.26 1.34-.26.63 0 1.17.2.53.2.91.59.39.38.6.95.22.56.22 1.28 0 .36-.08.49-.07.13-.29.13Zm5.1 1.41v-1.13q-.7.04-1.17.12-.48.09-.76.23-.29.13-.41.32-.13.18-.13.39 0 .42.25.61.25.18.66.18.49 0 .85-.18t.71-.54Zm-3.4-3.51-.28-.51q1.15-1.05 2.77-1.05.58 0 1.04.19.47.19.78.53.32.34.49.82.16.47.16 1.04v4.21h-.72q-.23 0-.35-.07-.13-.07-.2-.27l-.14-.49q-.26.23-.5.4-.24.18-.5.29-.26.12-.55.18-.3.06-.66.06-.42 0-.78-.11-.35-.11-.61-.34-.26-.23-.41-.57-.14-.33-.14-.78 0-.26.08-.51.09-.25.28-.47.19-.23.5-.43.3-.21.75-.35.44-.15 1.04-.25.59-.09 1.35-.11v-.39q0-.67-.29-.99-.28-.33-.82-.33-.39 0-.65.1-.26.09-.45.2-.2.11-.36.21-.16.09-.35.09-.17 0-.29-.09-.11-.09-.19-.21Zm8.08 5.23h-1.61v-6.67h.98q.32 0 .41.29l.11.5q.17-.2.36-.36.2-.16.41-.28.22-.12.47-.18.25-.07.55-.07.63 0 1.04.34.4.34.61.9.15-.33.39-.56.23-.24.51-.39.28-.15.59-.22.32-.07.64-.07.55 0 .98.17.43.16.72.49.29.32.45.79.15.47.15 1.08v4.24h-1.61v-4.24q0-.64-.28-.96-.28-.33-.82-.33-.24 0-.45.09-.21.08-.37.24-.16.16-.25.4-.1.24-.1.56v4.24h-1.61v-4.24q0-.67-.27-.98-.27-.31-.79-.31-.35 0-.65.18-.3.17-.56.47v4.88Zm14.44-1.44h3.76v1.44h-5.51v-9.4h1.75v7.96Zm7.7-5.33q.74 0 1.35.24.61.24 1.04.68.43.44.67 1.08.23.64.23 1.42 0 .8-.23 1.43-.24.64-.67 1.09-.43.45-1.04.69-.61.24-1.35.24-.74 0-1.36-.24-.61-.24-1.04-.69-.43-.45-.67-1.09-.24-.63-.24-1.43 0-.78.24-1.42.24-.64.67-1.08.43-.44 1.04-.68.62-.24 1.36-.24Zm0 5.63q.84 0 1.23-.56.4-.56.4-1.63 0-1.08-.4-1.65-.39-.56-1.23-.56t-1.25.56q-.4.57-.4 1.65 0 1.07.4 1.63.41.56 1.25.56Zm6.96-2.36q.3 0 .52-.08.22-.08.37-.22.14-.15.22-.35.07-.2.07-.44 0-.49-.29-.78-.3-.29-.89-.29-.59 0-.89.29-.29.29-.29.78 0 .23.07.44.07.2.22.34.15.15.37.23.23.08.52.08Zm1.81 3.8q0-.2-.12-.32-.11-.12-.31-.19-.21-.07-.47-.1-.27-.03-.58-.05-.3-.02-.62-.03-.32-.01-.63-.05-.26.15-.43.35-.17.2-.17.47 0 .17.09.33.09.15.28.26.19.11.5.17.3.06.75.06.44 0 .77-.07.32-.06.54-.18.21-.12.3-.29.1-.17.1-.36Zm-.32-6.74h1.92v.6q0 .28-.34.35l-.6.11q.13.34.13.75 0 .5-.19.9-.2.4-.55.67-.35.28-.83.44-.48.15-1.03.15-.2 0-.38-.02t-.36-.05q-.31.19-.31.42 0 .2.19.3.18.09.49.13.3.04.69.05.39.01.8.04.41.03.8.11.39.09.7.26.3.18.49.48.18.3.18.78 0 .44-.21.85-.22.42-.63.75-.42.32-1.02.52-.6.2-1.37.2-.75 0-1.31-.15t-.93-.39q-.37-.24-.55-.56-.18-.32-.18-.66 0-.47.28-.79.28-.31.78-.5-.27-.14-.43-.37-.15-.22-.15-.59 0-.15.05-.31.06-.16.17-.32.1-.15.26-.29.17-.14.39-.25-.51-.28-.8-.73-.29-.46-.29-1.07 0-.49.2-.89t.55-.68q.36-.29.84-.44.49-.15 1.06-.15.43 0 .8.09.38.09.69.26Zm5.89-.33q.74 0 1.34.24.61.24 1.04.68.44.44.67 1.08.23.64.23 1.42 0 .8-.23 1.43-.23.64-.67 1.09-.43.45-1.04.69-.6.24-1.34.24-.75 0-1.36-.24-.61-.24-1.05-.69-.43-.45-.67-1.09-.23-.63-.23-1.43 0-.78.23-1.42.24-.64.67-1.08.44-.44 1.05-.68.61-.24 1.36-.24Zm0 5.63q.83 0 1.23-.56t.4-1.63q0-1.08-.4-1.65-.4-.56-1.23-.56-.85 0-1.26.56-.4.57-.4 1.65 0 1.07.4 1.63.41.56 1.26.56Z"/></svg>